<?xml version="1.0" standalone="no"?>
<!DOCTYPE svg PUBLIC "-//W3C//DTD SVG 20010904//EN"
 "http://www.w3.org/TR/2001/REC-SVG-20010904/DTD/svg10.dtd">
<svg version="1.0" xmlns="http://www.w3.org/2000/svg"
 width="250.000000pt" height="284.000000pt" viewBox="0 0 250.000000 284.000000"
 preserveAspectRatio="xMidYMid meet">

<g transform="translate(0.000000,284.000000) scale(0.100000,-0.100000)"
fill="#000000" stroke="none">
<path d="M1080 2762 c-63 -37 -321 -186 -572 -332 -252 -145 -457 -264 -455
-265 1 -1 116 -68 255 -149 251 -146 252 -146 282 -131 40 21 99 19 137 -5
l32 -19 172 99 c156 90 174 103 185 136 14 40 48 81 76 90 17 5 18 23 18 325
0 175 -3 319 -7 319 -5 -1 -60 -31 -123 -68z"/>
<path d="M1290 2511 l0 -320 31 -16 c21 -11 38 -33 53 -67 22 -49 27 -53 183
-143 149 -86 161 -91 184 -79 32 18 98 17 129 -1 14 -8 30 -17 37 -20 9 -5
333 174 515 285 l27 16 -67 37 c-37 21 -96 55 -132 76 -139 81 -916 529 -937
540 l-23 12 0 -320z"/>
<path d="M0 1424 l0 -676 23 14 c12 8 138 81 280 163 254 146 259 149 253 177
-9 43 4 86 35 119 l29 31 0 189 0 188 -30 16 c-41 21 -70 71 -70 120 -1 40 -1
40 -88 89 -48 27 -163 94 -255 148 -93 54 -171 98 -173 98 -2 0 -4 -304 -4
-676z"/>
<path d="M2215 1939 c-148 -85 -271 -161 -271 -167 -1 -7 -2 -22 -3 -35 0 -13
-17 -42 -36 -64 l-35 -41 0 -207 c0 -203 0 -207 25 -243 15 -21 25 -51 25 -72
l1 -35 281 -163 c154 -89 282 -161 284 -159 2 2 3 305 2 673 l-3 669 -270
-156z"/>
<path d="M953 1883 c-219 -127 -220 -115 19 -254 181 -106 181 -106 210 -90
l28 16 0 185 0 185 -35 19 c-19 11 -35 23 -35 28 0 18 -30 3 -187 -89z"/>
<path d="M1345 1960 c-10 -11 -26 -22 -36 -25 -18 -6 -19 -20 -19 -192 0 -165
2 -187 18 -199 9 -7 23 -14 30 -14 7 0 72 34 145 76 215 124 194 106 188 160
l-6 46 -145 84 c-80 46 -148 83 -151 84 -3 0 -14 -9 -24 -20z"/>
<path d="M727 1651 l-27 -16 2 -184 3 -185 31 -8 c17 -4 38 -16 48 -27 17 -19
21 -17 169 69 147 85 152 89 155 123 3 35 2 36 -95 93 -284 166 -255 152 -286
135z"/>
<path d="M1545 1554 c-160 -93 -160 -93 -160 -129 0 -36 0 -37 154 -127 l154
-90 34 16 c19 9 43 16 53 16 19 0 20 8 20 193 l0 194 -39 11 c-21 7 -42 12
-47 11 -5 -1 -81 -43 -169 -95z"/>
<path d="M985 1231 c-134 -78 -151 -91 -160 -122 -5 -19 -14 -40 -19 -47 -4
-7 -6 -15 -5 -16 2 -1 76 -44 165 -95 l161 -92 42 27 41 28 0 188 0 187 -30
16 c-16 8 -33 15 -37 15 -4 -1 -75 -40 -158 -89z"/>
<path d="M1313 1303 c-22 -15 -23 -20 -23 -204 l0 -188 30 -18 c17 -9 30 -21
30 -25 0 -17 25 -5 170 78 133 76 149 88 140 104 -6 10 -10 36 -10 58 l0 39
-150 87 c-82 47 -153 86 -157 85 -5 0 -18 -7 -30 -16z"/>
<path d="M1861 989 c-19 -16 -38 -20 -85 -18 -60 2 -63 0 -228 -96 -131 -75
-168 -101 -168 -117 0 -30 -36 -83 -65 -96 l-25 -12 0 -320 c0 -177 3 -319 8
-317 4 3 158 91 342 198 891 513 814 466 788 482 -20 13 -393 230 -503 293
-40 23 -40 23 -64 3z"/>
</g>
</svg>
